<svg width="609" height="612" viewBox="0 0 609 612" fill="none" xmlns="http://www.w3.org/2000/svg">
<path d="M271.471 73.2319C281.127 48.2927 316.189 47.6522 326.936 72.2188L373.305 178.21C377.831 188.556 387.767 195.511 399.025 196.215L513.968 203.402C540.533 205.063 552.068 237.907 532.325 255.673L446.174 333.197C437.881 340.66 434.442 352.13 437.253 362.959L466.508 475.684C473.224 501.564 445.338 522.535 422.292 508.935L323.275 450.504C313.494 444.732 301.315 444.955 291.795 451.079L195.433 513.079C173.005 527.509 144.217 507.573 149.787 481.469L174.053 367.767C176.384 356.844 172.443 345.508 163.827 338.354L74.3299 264.038C53.8206 247.007 63.8986 213.769 90.3689 211.139L204.903 199.761C216.121 198.646 225.743 191.333 229.809 180.831L271.471 73.2319Z" fill="#FFDF5D"/>
<rect width="333.234" height="42.9273" rx="21.4637" transform="matrix(0.999967 0.00814713 -0.00389913 0.999992 133.317 234.643)" fill="#FEEF96"/>
<rect width="116.987" height="49.8354" rx="24.9177" transform="matrix(0.973532 0.228551 -0.221066 0.975259 154.512 234.755)" fill="#FEEF96"/>
<path d="M305.985 154.178C319.742 154.499 330.668 165.92 330.389 179.688L329.01 247.61C328.731 261.378 317.351 272.278 303.594 271.958C289.836 271.637 278.91 260.216 279.19 246.448L280.569 178.525C280.848 164.758 292.227 153.857 305.985 154.178Z" fill="#FEEF96"/>
<path d="M337.419 291.626C334.267 278.205 342.484 264.791 355.771 261.666L421.325 246.249C434.612 243.124 447.939 251.47 451.091 264.892C454.243 278.313 446.027 291.726 432.739 294.851L367.186 310.269C353.898 313.394 340.571 305.047 337.419 291.626Z" fill="#FEEF96"/>
<path d="M231.032 390.951C227.88 377.53 236.097 364.116 249.384 360.991L314.938 345.574C328.226 342.449 341.552 350.795 344.704 364.217C347.856 377.638 339.64 391.051 326.352 394.176L260.799 409.594C247.511 412.719 234.184 404.372 231.032 390.951Z" fill="#FEEF96"/>
<path d="M309.085 385.576C305.689 372.236 311.543 359.614 322.16 357.382L374.538 346.374C385.155 344.143 396.515 353.148 399.91 366.487C403.306 379.827 397.452 392.45 386.835 394.681L334.457 405.69C323.84 407.921 312.48 398.916 309.085 385.576Z" fill="#FEEF96"/>
<path d="M257.287 317.619C250.722 294.61 254.591 274.746 265.929 273.253L321.867 265.887C333.205 264.394 347.719 281.836 354.285 304.845C360.85 327.854 356.981 347.717 345.642 349.21L289.705 356.577C278.367 358.07 263.853 340.628 257.287 317.619Z" fill="#FEEF96"/>
<rect width="340.867" height="42.8625" rx="21.4313" transform="matrix(0.77534 -0.631544 0.625345 0.780348 182.721 446.528)" fill="#FEEF96"/>
<rect width="342.716" height="42.6316" rx="21.3158" transform="matrix(0.305741 -0.952115 0.949428 0.313986 182.741 462.173)" fill="#FEEF96"/>
<rect width="343.53" height="42.529" rx="21.2645" transform="matrix(-0.329755 -0.944066 0.943268 -0.332032 389.217 465.568)" fill="#FEEF96"/>
<rect width="342.047" height="42.7155" rx="21.3577" transform="matrix(-0.811973 -0.583695 0.575629 -0.817711 402.926 465.4)" fill="#FEEF96"/>
</svg>
